<?xml version="1.0" encoding="utf-8"?>
<!-- Generator: Adobe Illustrator 16.0.0, SVG Export Plug-In . SVG Version: 6.00 Build 0)  -->
<!DOCTYPE svg PUBLIC "-//W3C//DTD SVG 1.1//EN" "http://www.w3.org/Graphics/SVG/1.1/DTD/svg11.dtd">
<svg version="1.1" id="Layer_1" xmlns="http://www.w3.org/2000/svg" xmlns:xlink="http://www.w3.org/1999/xlink" x="0px" y="0px"
	 width="50px" height="50px" viewBox="0 0 50 50" enable-background="new 0 0 50 50" xml:space="preserve">
<g>
	<g>
		<animateTransform
      attributeName="transform"
      dur="2s"
      type="rotate"
      from="0 20 20"
      to="360 20 20"
      repeatCount="indefinite" />
		<path fill-rule="evenodd" clip-rule="evenodd" fill="#FFFFFF" d="M15.053,12.392c-0.425-0.23-0.684-0.363-0.937-0.508
			c-1.863-1.073-3.723-2.15-5.587-3.221C6.461,7.475,4.682,7.93,3.47,9.96c-0.494,0.828-0.998,1.652-1.447,2.504
			c-0.954,1.81-0.458,3.573,1.302,4.612c1.969,1.164,3.958,2.294,5.937,3.442c0.229,0.133,0.448,0.284,0.76,0.483
			c-0.381,0.234-0.674,0.422-0.975,0.597c-1.884,1.092-3.778,2.167-5.653,3.275c-1.873,1.105-2.354,2.9-1.303,4.81
			c0.452,0.818,0.935,1.621,1.417,2.426c1.162,1.932,2.959,2.393,4.939,1.264c1.867-1.066,3.727-2.143,5.59-3.213
			c0.278-0.16,0.563-0.305,1.015-0.551c0,0.455,0,0.744,0,1.033c0,2.176-0.013,4.354,0.004,6.529
			c0.018,2.361,1.346,3.662,3.713,3.67c0.882,0.002,1.765,0.008,2.647-0.002c2.111-0.021,3.475-1.334,3.51-3.445
			c0.037-2.232,0.01-4.465,0.011-6.697c0-0.295,0-0.592,0-1.057c0.412,0.209,0.696,0.338,0.966,0.492
			c1.865,1.068,3.724,2.145,5.589,3.213c2.058,1.18,3.847,0.709,5.049-1.324c0.435-0.734,0.867-1.473,1.291-2.213
			c1.154-2.02,0.684-3.813-1.32-4.985c-2.14-1.251-4.29-2.487-6.572-3.808c0.299-0.192,0.506-0.337,0.725-0.464
			c1.956-1.133,3.917-2.257,5.869-3.396c1.963-1.146,2.447-2.945,1.328-4.918c-0.476-0.839-0.956-1.676-1.462-2.497
			c-1.06-1.718-2.841-2.214-4.641-1.229c-1.958,1.072-3.875,2.218-5.81,3.329c-0.28,0.161-0.565,0.313-0.959,0.53
			c-0.022-0.38-0.051-0.642-0.051-0.903c-0.004-2.177,0.004-4.354-0.004-6.53c-0.008-2.48-1.304-3.776-3.763-3.781
			c-0.855-0.002-1.71-0.006-2.565,0.001c-2.146,0.018-3.518,1.348-3.546,3.499c-0.03,2.231-0.008,4.464-0.009,6.696
			C15.053,11.643,15.053,11.933,15.053,12.392z"/>
	</g>
</g>
</svg>
