<?xml version="1.0" encoding="utf-8"?>
<!-- Generator: Adobe Illustrator 16.0.0, SVG Export Plug-In . SVG Version: 6.00 Build 0)  -->
<!DOCTYPE svg PUBLIC "-//W3C//DTD SVG 1.1//EN" "http://www.w3.org/Graphics/SVG/1.1/DTD/svg11.dtd">
<svg version="1.1" id="Layer_1" xmlns="http://www.w3.org/2000/svg" xmlns:xlink="http://www.w3.org/1999/xlink" x="0px" y="0px"
	 width="94.14px" height="54.249px" viewBox="0 0 94.14 54.249" enable-background="new 0 0 94.14 54.249" xml:space="preserve">
<g>
	<g>
		<path fill-rule="evenodd" clip-rule="evenodd" fill="#FFFFFF" d="M87.567,39.916c0.553-0.131,1.004-0.222,1.447-0.345
			c2.014-0.56,3.518-2.274,3.548-4.418c0.075-5.315,0.091-10.635,0.003-15.951c-0.043-2.608-1.666-4.082-4.998-4.836
			c0-1.761,0.004-3.563-0.002-5.364c-0.014-4.701-2.49-7.172-7.186-7.172c-23.879,0-47.757,0.049-71.636-0.052
			C5.026,1.762,1.46,4.251,1.516,9.021c0.14,12.07,0.042,24.144,0.048,36.214c0.002,4.771,2.482,7.232,7.263,7.232
			c23.963,0.001,47.926,0.004,71.889-0.002c4.214-0.001,6.779-2.537,6.847-6.742c0.024-1.52,0.005-3.039,0.005-4.559
			C87.567,40.75,87.567,40.333,87.567,39.916z M82.575,34.746c0,3.621,0.004,7.035-0.002,10.451
			c-0.003,1.947-0.275,2.224-2.158,2.224c-23.871,0.001-47.741,0.001-71.611,0.001c-1.979,0-2.248-0.266-2.248-2.271
			c-0.003-11.983-0.002-23.966,0-35.949c0-2.068,0.26-2.324,2.326-2.324c23.322,0,46.644,0,69.966,0
			c3.678,0,3.775-0.457,3.734,3.695c-0.027,2.943-0.005,5.886-0.005,8.995c1.743,0,3.356,0,4.989,0c0,5.13,0,10.093,0,15.179
			C85.911,34.746,84.329,34.746,82.575,34.746z"/>
		<rect x="11.751" y="12.056" fill-rule="evenodd" clip-rule="evenodd" fill="#FFFFFF" width="0" height="30.208">
			<animate id="battery-fill"
		      attributeName="width"
		      dur="4s"
		      from="0" to="65"
		      repeatCount="indefinite" 
		      begin="0" />   
		</rect>
	</g>
</g>
</svg>
