<?xml version="1.0" encoding="utf-8"?>
<!-- Generator: Adobe Illustrator 16.0.0, SVG Export Plug-In . SVG Version: 6.00 Build 0)  -->
<!DOCTYPE svg PUBLIC "-//W3C//DTD SVG 1.1//EN" "http://www.w3.org/Graphics/SVG/1.1/DTD/svg11.dtd">
<svg version="1.1" id="Layer_1" xmlns="http://www.w3.org/2000/svg" xmlns:xlink="http://www.w3.org/1999/xlink" x="0px" y="0px"
	 width="64.807px" height="65.163px" viewBox="0 0 64.807 65.163" enable-background="new 0 0 64.807 65.163" xml:space="preserve">
<g>
	<path fill="#FFFFFF" d="M32.56,31.581l21.449-21.449c-5.603-5.394-13.214-8.717-21.606-8.717c-8.352,0-15.93,3.292-21.526,8.641
		l21.526,21.525l-0.166,0.166h0.489L32.56,31.581z">
		<animate
      attributeName="opacity"
      dur="1s"
      values="0;1;0"
      repeatCount="indefinite" 
      begin="0"/>     
	</path>
	<path fill="#FFFFFF" d="M32.726,31.747h-0.489l-22.36,22.36c5.675,5.937,13.666,9.641,22.526,9.641
		c8.901,0,16.924-3.737,22.603-9.721L32.726,31.747z">
		<animate
      attributeName="opacity"
      dur="1s"
      values="0;1;0"
      repeatCount="indefinite" 
      begin="0.2s"/>   
	</path>
	<path fill="#FFFFFF" d="M10.877,10.056c-5.937,5.674-9.641,13.665-9.641,22.525c0,8.352,3.292,15.931,8.64,21.526l22.526-22.526
		L10.877,10.056z">
	<animate
      attributeName="opacity"
      dur="1s"
      values="0;1;0"
      repeatCount="indefinite" 
      begin="0.4s"/>  
	</path>
	<path fill="#FFFFFF" d="M54.009,10.132L32.56,31.581l22.446,22.446c5.303-5.588,8.563-13.134,8.563-21.446
		C63.57,23.761,59.899,15.802,54.009,10.132z">
		<animate
      attributeName="opacity"
      dur="1s"
      values="0;1;0"
      repeatCount="indefinite" 
      begin="0.6s"/>  
	</path>
</g>
</svg>
