<?xml version="1.0" encoding="utf-8"?>
<!-- Generator: Adobe Illustrator 16.0.0, SVG Export Plug-In . SVG Version: 6.00 Build 0)  -->
<!DOCTYPE svg PUBLIC "-//W3C//DTD SVG 1.1//EN" "http://www.w3.org/Graphics/SVG/1.1/DTD/svg11.dtd">
<svg version="1.1" id="Layer_1" xmlns="http://www.w3.org/2000/svg" xmlns:xlink="http://www.w3.org/1999/xlink" x="0px" y="0px"
	 width="40px" height="42px" viewBox="0 0 40 42" enable-background="new 0 0 40 42" xml:space="preserve">
<g>
	<g>
		<animateTransform
      attributeName="transform"
      dur="2s"
      type="rotate"
      from="0 20 20"
      to="360 20 20"
      repeatCount="indefinite" />
      		<animate
      attributeName="opacity"
      dur="2s"
      values="1;0.5;1"
      repeatCount="indefinite" />
		<path fill-rule="evenodd" clip-rule="evenodd" fill="#FFFFFF" d="M12.754,21.032c-0.52,0.51-1.006,0.981-1.486,1.458
			c-2.054,2.048-4.115,4.088-6.155,6.151c-1.304,1.318-1.28,2.736,0.022,4.035c1.006,1.006,2.014,2.008,3.02,3.012
			c1.526,1.525,2.842,1.523,4.389-0.018c2.256-2.248,4.508-4.5,6.755-6.755c0.199-0.2,0.347-0.451,0.58-0.759
			c0.404,0.385,0.688,0.646,0.959,0.917c2.235,2.228,4.465,4.46,6.701,6.687c1.424,1.42,2.786,1.424,4.207,0.018
			c1.01-1.002,2.016-2.006,3.018-3.016c1.466-1.475,1.455-2.781-0.041-4.267c-2.479-2.464-4.963-4.923-7.494-7.431
			c0.243-0.267,0.419-0.479,0.612-0.671c2.332-2.334,4.665-4.664,7-6.996c1.322-1.321,1.347-2.709,0.05-4.029
			c-1.077-1.095-2.161-2.183-3.26-3.255c-1.287-1.256-2.693-1.257-3.971,0.009c-2.283,2.261-4.554,4.534-6.817,6.813
			c-0.259,0.26-0.443,0.594-0.753,1.019c-1.63-1.659-3.074-3.136-4.528-4.605c-1.06-1.071-2.12-2.142-3.199-3.195
			C11.008,4.831,9.625,4.853,8.268,6.2C7.219,7.242,6.173,8.287,5.127,9.332c-1.274,1.275-1.322,2.693-0.063,3.971
			c2.315,2.349,4.663,4.667,6.995,6.999C12.276,20.518,12.482,20.745,12.754,21.032z"/>
	</g>
</g>
</svg>
