<svg version="1.1" xmlns="http://www.w3.org/2000/svg"
	xmlns:xlink="http://www.w3.org/1999/xlink" x="0px" y="0px" width="30px" height="30px"
	viewBox="0 0 30 30" enable-background="new 0 0 30 30" xml:space="preserve" fill="#fff">

	<path opacity="0.4" d="m14.946,0c-8.254,0 -14.946,6.692 -14.946,14.946c0,8.255 6.692,14.946 14.946,14.946s14.946,-6.691 14.946,-14.946c-0.001,-8.254 -6.692,-14.946 -14.946,-14.946zm0,26.58c-6.425,0 -11.634,-5.208 -11.634,-11.634c0,-6.425 5.209,-11.634 11.634,-11.634c6.425,0 11.633,5.209 11.633,11.634c0,6.426 -5.208,11.634 -11.633,11.634z"/>

	<path d="m20.763,4.872l1.654,-2.866c-2.198,-1.272 -4.743,-2.012 -7.466,-2.012h0v3.312h0c2.119,0 4.1,0.576 5.812,1.566z">
		<animateTransform attributeType="xml"
			attributeName="transform"
			type="rotate"
			from="0 15 15"
			to="360 15 15"
			dur="0.75s"
			repeatCount="indefinite"/>
	</path>
</svg>