<?xml version="1.0" encoding="utf-8"?>
<!-- Generator: Adobe Illustrator 16.0.0, SVG Export Plug-In . SVG Version: 6.00 Build 0)  -->
<!DOCTYPE svg PUBLIC "-//W3C//DTD SVG 1.1//EN" "http://www.w3.org/Graphics/SVG/1.1/DTD/svg11.dtd">
<svg version="1.1" id="Layer_1" xmlns="http://www.w3.org/2000/svg" xmlns:xlink="http://www.w3.org/1999/xlink" x="0px" y="0px"
	 width="155.814px" height="32.737px" viewBox="0 0 155.814 32.737" enable-background="new 0 0 155.814 32.737"
	 xml:space="preserve">
<g>
	<rect x="2.768" y="26.333" fill="#FFFFFF" width="58.667" height="5">
	<animate attributeName="width" attributeType="XML" id="rect1"
    fill="freeze"
    from="0" to="150"
    begin="0s" dur="2s" repeatCount="indefinite" />
	</rect>
	<rect x="2.768" y="2" fill="#FFFFFF" width="58.667" height="5">
	<animate attributeName="width" attributeType="XML" id="rect1"
    fill="freeze"
    from="0" to="150"
    begin="0s" dur="2s" repeatCount="indefinite" />
	</rect>
	<rect x="2.768" y="6.666" opacity="0.2" fill="#FFFFFF" width="150" height="19.667"/>
	<g>
		<g>
			<animate attributeName="opacity" attributeType="XML" id="rect1"
		    values="1;0.2;1"
		    begin="0s" dur="2s" repeatCount="indefinite" />
			<path fill="#FFFFFF" d="M37.294,22.025V10.928h1.291v9.929h4.896v1.168H37.294z"/>
			<path fill="#FFFFFF" d="M55.292,16.461c0,1.778-0.449,3.174-1.347,4.191c-0.898,1.018-2.147,1.525-3.746,1.525
				c-1.635,0-2.896-0.5-3.784-1.5c-0.888-0.997-1.333-2.409-1.333-4.23c0-1.807,0.445-3.207,1.336-4.203
				c0.891-0.994,2.156-1.49,3.796-1.49c1.594,0,2.839,0.506,3.734,1.518C54.844,13.283,55.292,14.68,55.292,16.461z M46.448,16.461
				c0,1.504,0.32,2.645,0.96,3.42c0.64,0.776,1.57,1.165,2.79,1.165c1.229,0,2.158-0.387,2.786-1.161
				c0.627-0.773,0.941-1.914,0.941-3.424c0-1.492-0.313-2.625-0.938-3.396s-1.55-1.158-2.774-1.158c-1.23,0-2.165,0.389-2.805,1.166
				S46.448,14.979,46.448,16.461z"/>
			<path fill="#FFFFFF" d="M65.038,22.025l-1.382-3.528h-4.448l-1.366,3.528h-1.306l4.388-11.142h1.085l4.365,11.142H65.038z
				 M63.253,17.334l-1.29-3.438c-0.167-0.436-0.339-0.969-0.517-1.602c-0.111,0.484-0.271,1.02-0.478,1.602l-1.306,3.438H63.253z"/>
			<path fill="#FFFFFF" d="M77.053,16.371c0,1.833-0.497,3.233-1.491,4.201c-0.995,0.969-2.426,1.453-4.293,1.453h-3.074V10.928
				h3.401c1.726,0,3.066,0.479,4.023,1.436C76.575,13.318,77.053,14.654,77.053,16.371z M75.687,16.416
				c0-1.447-0.363-2.537-1.089-3.271s-1.805-1.102-3.237-1.102h-1.875v8.867h1.571c1.538,0,2.695-0.379,3.469-1.134
				C75.3,19.02,75.687,17.899,75.687,16.416z"/>
			<path fill="#FFFFFF" d="M79.824,22.025V10.928h1.29v11.097H79.824z"/>
			<path fill="#FFFFFF" d="M93.121,22.025h-1.473l-6.064-9.314h-0.061c0.081,1.094,0.121,2.096,0.121,3.008v6.306h-1.191V10.928
				h1.457l6.051,9.275h0.061c-0.01-0.134-0.033-0.573-0.068-1.315c-0.035-0.74-0.049-1.272-0.039-1.59v-6.369h1.207V22.025z"/>
			<path fill="#FFFFFF" d="M101.351,16.211h3.772v5.396c-0.587,0.188-1.185,0.33-1.792,0.426s-1.311,0.145-2.11,0.145
				c-1.68,0-2.988-0.5-3.924-1.5c-0.937-0.997-1.404-2.397-1.404-4.201c0-1.154,0.231-2.164,0.694-3.033
				c0.463-0.867,1.13-1.529,2-1.988c0.87-0.457,1.891-0.688,3.06-0.688c1.184,0,2.287,0.219,3.31,0.654l-0.501,1.139
				c-1.002-0.426-1.966-0.639-2.893-0.639c-1.351,0-2.406,0.402-3.165,1.207c-0.76,0.805-1.139,1.92-1.139,3.348
				c0,1.499,0.365,2.635,1.097,3.409c0.731,0.774,1.806,1.161,3.223,1.161c0.769,0,1.521-0.088,2.254-0.266v-3.416h-2.481V16.211z"
				/>
			<path fill="#FFFFFF" d="M107.711,21.22c0-0.338,0.076-0.596,0.231-0.77c0.154-0.176,0.375-0.262,0.664-0.262
				c0.293,0,0.522,0.086,0.687,0.262c0.165,0.174,0.247,0.432,0.247,0.77c0,0.33-0.084,0.582-0.251,0.76s-0.395,0.266-0.683,0.266
				c-0.259,0-0.473-0.08-0.642-0.238C107.795,21.847,107.711,21.585,107.711,21.22z"/>
			<path fill="#FFFFFF" d="M111.086,21.22c0-0.338,0.076-0.596,0.231-0.77c0.154-0.176,0.375-0.262,0.664-0.262
				c0.293,0,0.522,0.086,0.687,0.262c0.165,0.174,0.247,0.432,0.247,0.77c0,0.33-0.084,0.582-0.251,0.76s-0.395,0.266-0.683,0.266
				c-0.259,0-0.473-0.08-0.642-0.238C111.17,21.847,111.086,21.585,111.086,21.22z"/>
			<path fill="#FFFFFF" d="M114.462,21.22c0-0.338,0.076-0.596,0.231-0.77c0.154-0.176,0.375-0.262,0.664-0.262
				c0.293,0,0.522,0.086,0.687,0.262c0.165,0.174,0.247,0.432,0.247,0.77c0,0.33-0.084,0.582-0.251,0.76s-0.395,0.266-0.683,0.266
				c-0.259,0-0.473-0.08-0.642-0.238C114.546,21.847,114.462,21.585,114.462,21.22z"/>
		</g>
	</g>
</g>
</svg>
